<svg id="图层_1" data-name="图层 1" xmlns="http://www.w3.org/2000/svg" xmlns:xlink="http://www.w3.org/1999/xlink" viewBox="0 0 1349.51 225.81"><defs><style>.cls-1{fill:url(#未命名的渐变_6);}.cls-2{fill:url(#未命名的渐变_6-2);}.cls-3{fill:url(#未命名的渐变_6-3);}.cls-4{fill:url(#未命名的渐变_6-4);}.cls-5{fill:url(#未命名的渐变_6-5);}.cls-6{fill:url(#未命名的渐变_6-6);}.cls-7{fill:url(#未命名的渐变_6-7);}.cls-8{fill:url(#未命名的渐变_6-8);}.cls-9{fill:url(#未命名的渐变_6-9);}.cls-10{fill:url(#未命名的渐变_6-10);}.cls-11{fill:#07354e;}.cls-12{fill:url(#未命名的渐变_6-11);}.cls-13{fill:url(#未命名的渐变_6-12);}.cls-14{fill:url(#未命名的渐变_6-13);}.cls-15{fill:url(#未命名的渐变_6-14);}</style><linearGradient id="未命名的渐变_6" x1="450.4" y1="472.46" x2="448.11" y2="662.97" gradientUnits="userSpaceOnUse"><stop offset="0" stop-color="#ff9302"/><stop offset="1" stop-color="#fd5c04"/></linearGradient><linearGradient id="未命名的渐变_6-2" x1="555.78" y1="473.73" x2="553.49" y2="664.24" xlink:href="#未命名的渐变_6"/><linearGradient id="未命名的渐变_6-3" x1="667.04" y1="475.07" x2="664.74" y2="665.58" xlink:href="#未命名的渐变_6"/><linearGradient id="未命名的渐变_6-4" x1="789.89" y1="476.55" x2="787.59" y2="667.06" xlink:href="#未命名的渐变_6"/><linearGradient id="未命名的渐变_6-5" x1="906.89" y1="477.96" x2="904.59" y2="668.47" xlink:href="#未命名的渐变_6"/><linearGradient id="未命名的渐变_6-6" x1="1026.83" y1="479.4" x2="1024.54" y2="669.92" xlink:href="#未命名的渐变_6"/><linearGradient id="未命名的渐变_6-7" x1="1106.51" y1="480.36" x2="1104.21" y2="670.88" xlink:href="#未命名的渐变_6"/><linearGradient id="未命名的渐变_6-8" x1="1188.41" y1="481.35" x2="1186.11" y2="671.86" xlink:href="#未命名的渐变_6"/><linearGradient id="未命名的渐变_6-9" x1="1307.42" y1="482.78" x2="1305.13" y2="673.3" xlink:href="#未命名的渐变_6"/><linearGradient id="未命名的渐变_6-10" x1="1427.62" y1="484.23" x2="1425.32" y2="674.75" xlink:href="#未命名的渐变_6"/><linearGradient id="未命名的渐变_6-11" x1="165.66" y1="585.69" x2="326.07" y2="585.69" xlink:href="#未命名的渐变_6"/><linearGradient id="未命名的渐变_6-12" x1="166.83" y1="630.83" x2="290.86" y2="630.83" xlink:href="#未命名的渐变_6"/><linearGradient id="未命名的渐变_6-13" x1="173.34" y1="538.17" x2="311.79" y2="538.17" xlink:href="#未命名的渐变_6"/><linearGradient id="未命名的渐变_6-14" x1="254.49" y1="640.57" x2="323.06" y2="640.57" xlink:href="#未命名的渐变_6"/></defs><path class="cls-1" d="M494.51,535.52v20.37H462.83q-12.33,0-18,1.72a18.31,18.31,0,0,0-9.41,6.67,20.62,20.62,0,0,0-3.52,6.85,73,73,0,0,0-1.62,11.65h64.21v20.37H430.3q1.36,14.73,8.73,20.47t25,5.73h30.48v20.38H462.83a146.06,146.06,0,0,1-22.6-1.55q-15.41-2.56-24.48-13.52-13-15.75-13-42.64,0-29.79,18.32-46.4a36.57,36.57,0,0,1,13.44-7.87q7.11-2.24,19.1-2.23Z" transform="translate(-133.12 -482.37)"/><path class="cls-2" d="M600.5,629.35v20.38H560.6a94,94,0,0,1-17.29-1.2q-21.06-4.11-30-23.46-5.82-13-5.82-32.19,0-22.95,8.91-37.33a38.39,38.39,0,0,1,17.37-15.24q10.88-4.78,28-4.79h38.7v20.37h-36q-16.27,0-23.8,8.74-6.35,7.18-6.33,26,0,25.35,9.75,33.22,6.86,5.49,21.41,5.48Z" transform="translate(-133.12 -482.37)"/><path class="cls-3" d="M640.22,535.52V604q0,8.22,1.37,12.75a18.28,18.28,0,0,0,4.62,7.8q7.18,7,20,7a33.69,33.69,0,0,0,14.3-2.83q6.08-2.82,8.48-7.62T691.41,604V535.52h24.32v67.29q0,13.35-2.83,22a31.75,31.75,0,0,1-8.64,14q-13.53,11.81-38.36,11.81-26.53,0-38.69-11.64a31.83,31.83,0,0,1-8.74-13.44q-2.4-7.46-2.39-21v-69Z" transform="translate(-133.12 -482.37)"/><path class="cls-4" d="M737.81,649.73V535.52h64.55q15.24,0,22.09,3.59,8.06,3.95,12.16,13.19a31.49,31.49,0,0,1-1.8,29.79,24.94,24.94,0,0,1-11.9,10.62q16.61,7.53,16.61,26.88,0,11.13-5.31,18.66a23.71,23.71,0,0,1-11.81,9q-7.2,2.49-21.4,2.49Zm24.32-67.29h33a39.47,39.47,0,0,0,7.62-.52,11.54,11.54,0,0,0,4.54-2.22,13.51,13.51,0,0,0,5.31-11.31q0-6.84-5-10.1c-2.4-1.59-6.39-2.4-12-2.4H762.13Zm0,46.91h33a41.21,41.21,0,0,0,7.71-.51,10.35,10.35,0,0,0,4.45-2.23,13.51,13.51,0,0,0,5.31-11.3q0-6.84-5-10.1-3.6-2.4-12-2.4H762.13Z" transform="translate(-133.12 -482.37)"/><path class="cls-5" d="M880.1,535.52V604q0,8.22,1.37,12.75a18.28,18.28,0,0,0,4.62,7.8q7.2,7,20,7a33.64,33.64,0,0,0,14.29-2.83q6.08-2.82,8.48-7.62T931.3,604V535.52h24.31v67.29q0,13.35-2.83,22a31.75,31.75,0,0,1-8.64,14q-13.53,11.81-38.35,11.81-26.55,0-38.7-11.64a31.71,31.71,0,0,1-8.73-13.44q-2.4-7.46-2.4-21v-69Z" transform="translate(-133.12 -482.37)"/><path class="cls-6" d="M977.18,649.73V629.35h52.23q12.49,0,16.6-2.4a11.76,11.76,0,0,0,6-10.78q0-8.4-7-12.16-3.95-2.22-12.67-2.23h-21.24q-19.35,0-27.91-7a30.65,30.65,0,0,1-8.3-11.13,34.66,34.66,0,0,1-3-14.38,37.1,37.1,0,0,1,7-21.92q6.84-9.58,21.91-11.3c3.43-.34,8.5-.51,15.24-.51h56.67v20.37h-51.19q-11.47.18-15.24,1-7.71,1.89-7.7,11.65,0,8.22,6.5,10.95,4.27,2.06,14.38,2.06h18.33q14,0,20.88,2.39,12.16,4.11,16.78,14.39a43.48,43.48,0,0,1,3.6,17.64,36.4,36.4,0,0,1-4.79,18.66,27.69,27.69,0,0,1-20,14,138.35,138.35,0,0,1-19.69,1Z" transform="translate(-133.12 -482.37)"/><path class="cls-7" d="M1125,595.28v20.54h-39.9V595.28Z" transform="translate(-133.12 -482.37)"/><path class="cls-8" d="M1160.9,609.83v39.9h-24.31V535.52h57q15.57,0,22.26,2.23,11.3,3.76,17.8,15.58a40.09,40.09,0,0,1,4.8,19.34,43.51,43.51,0,0,1-3.17,16.53,33.26,33.26,0,0,1-8.82,12.75,29.41,29.41,0,0,1-10.87,6.17q-5.74,1.71-15.67,1.71Zm0-20.38h33q8.9,0,12.5-2.74,5.29-4.28,5.31-14.89,0-11.48-8-14.73c-1.94-.79-5-1.2-9.25-1.2H1160.9Z" transform="translate(-133.12 -482.37)"/><path class="cls-9" d="M1278.19,606.41v43.32h-24.31V535.52h55.82q24,0,33.39,6.16a27.86,27.86,0,0,1,10,10.88,31.65,31.65,0,0,1,3.51,14.81q0,16.26-8.22,25.17a32.29,32.29,0,0,1-13.52,8,37.64,37.64,0,0,1,10.1,5.06,23.77,23.77,0,0,1,6.16,7.79,38.84,38.84,0,0,1,3,7.87,69.93,69.93,0,0,1,1.46,11.13q1,12.33,2.74,17.3H1331.1q-1.2-3.94-2.57-16.27-.85-9.93-3.51-15.24a19.74,19.74,0,0,0-8-8.39q-6.68-3.6-19.35-3.42Zm0-20.38h34.08c5.7,0,9.76-.86,12.15-2.57q5.47-3.76,5.48-13.18,0-10.44-8.22-13.36c-1.94-.68-5.08-1-9.41-1h-34.08Z" transform="translate(-133.12 -482.37)"/><path class="cls-10" d="M1426.3,534.84q17.12,0,30.13,5.82,15.24,7,21.41,23.45,4.79,12.84,4.79,30.14,0,17.46-5.82,30.31a41.85,41.85,0,0,1-22.6,21.4q-11.31,4.45-26,4.45-19.35,0-33.56-7.19a40.2,40.2,0,0,1-18.32-18.83q-6.33-12.85-6.33-31.17,0-32.7,16.26-46.57Q1399.92,535,1426.3,534.84Zm.17,19.17q-16.79,0-24,11-5.82,8.56-5.82,27.57,0,20,7.19,29.45,7.19,9.24,22.77,9.24,15.06,0,22.17-9.41t7.11-29.11q0-18-5.82-27.4Q1443.43,554.18,1426.47,554Z" transform="translate(-133.12 -482.37)"/><circle class="cls-11" cx="112.9" cy="112.9" r="112.9"/><path class="cls-12" d="M165.72,595.3c-.34-7.39.84-14.12,4.23-20.42,5.58-10.37,14.84-15.4,26-17.41,10.64-1.93,21.19-.42,31.53,2.09,14.91,3.63,29.65,7.93,44.59,11.36a94.38,94.38,0,0,0,20.79,2.33c10.57,0,20.29-2.54,26.1-13.68,1.13,2.25,2,4,2.91,5.81,1.36,2.6,4.4,10,4.23,11.08-1.76,11.34-8.35,19.45-17.41,25.9s-19.22,9.37-29.89,10.95c-14.91,2.21-29.81,2.44-44.25-2.72a41,41,0,0,1-10.37-5.91c-1.36-1-2.58-3.76-2.15-5.2s2.91-2.72,4.7-3.09c3.4-.71,7-.49,10.41-1.13,1.46-.27,3.34-1.5,3.79-2.74.33-.89-1.12-3.15-2.29-3.72a70,70,0,0,0-12-4.7c-11.3-3-22.81-4.7-34.54-3.2-7.35,1-14.33,3.1-20.12,8A84.34,84.34,0,0,0,165.72,595.3Z" transform="translate(-133.12 -482.37)"/><path class="cls-13" d="M290.86,661.78A66.91,66.91,0,0,1,263.73,674a80.52,80.52,0,0,1-83.38-32.93,77.94,77.94,0,0,1-13.41-34.81c-.83-6.39,3.39-10.38,8.13-13.52,7.24-4.78,15.39-6.73,24-6.85,1.86,0,2.92.3,2.64,2.57-1.45,11.79,3.17,21.43,11.25,29.48,4.35,4.33,9.44,7.92,14.2,11.84a34,34,0,0,1,3.75,3.2c2.62,2.93,1.48,6.52-2.41,7.12a18.69,18.69,0,0,1-6.39-.41c-2.81-.57-5.52-1.71-8.35-2.2-1.44-.25-3.7-.12-4.4.77s-.58,3.26.07,4.53c2.94,5.74,7.61,9.92,13,13.26,14.26,8.79,29.91,11.33,46.29,9.69,6.83-.68,13.55-2.4,20.32-3.65C289.69,662,290.28,661.88,290.86,661.78Z" transform="translate(-133.12 -482.37)"/><path class="cls-14" d="M311.2,561.22c-5.49-4.25-9.93-8.53-15.1-11.54-22.77-13.24-45.56-13-68,1a10.84,10.84,0,0,1-8.3,1.78c-11.68-2.08-23.39-2.6-34.6,2.23-3.9,1.68-7.42,4.23-11.88,6.83,2.16-3.82,3.83-7.17,5.86-10.29a80.26,80.26,0,0,1,81.57-35.17c17,3.11,31.68,10.71,43.59,23.36,4.1,4.36,7.18,9.33,7.42,15.53A47.19,47.19,0,0,1,311.2,561.22Z" transform="translate(-133.12 -482.37)"/><path class="cls-15" d="M323.06,625.37c-1.53,3.71-2.5,7.65-4.64,10.79a39.26,39.26,0,0,1-8.73,9c-15.47,11.67-33.05,16.63-52.35,15.62a5.15,5.15,0,0,1-2.85-1c3.61-1.07,7.26-2,10.82-3.21,15.49-5.17,27.3-15.22,37.23-27.88a35.36,35.36,0,0,1,7.38-6.8c3.28-2.34,6.74-2.12,9.81.81C320.69,623.58,321.79,624.34,323.06,625.37Z" transform="translate(-133.12 -482.37)"/></svg>